<?xml version="1.0" standalone="no"?><!DOCTYPE svg PUBLIC "-//W3C//DTD SVG 1.1//EN" "http://www.w3.org/Graphics/SVG/1.1/DTD/svg11.dtd"><svg width="100%" height="100%" viewBox="0 0 53 58" version="1.1" xmlns="http://www.w3.org/2000/svg" xmlns:xlink="http://www.w3.org/1999/xlink" xml:space="preserve" style="fill-rule:evenodd;clip-rule:evenodd;stroke-miterlimit:1.41421;"><path id="A320" d="M23.486,6.352c0,0 1.25,-5.956 2.921,-5.939c1.669,0.017 3.102,5.939 3.102,5.939c0,0 0.009,10.792 0,12.3c-0.01,1.507 1.023,1.847 1.023,1.847l2.93,1.706c0,0 -0.099,-3.873 0,-4.411c0.099,-0.538 0.449,-0.467 0.449,-0.467c0,0 2.089,-0.053 2.431,0c0.342,0.054 0.422,0.792 0.44,0.792c0.019,0 -0.036,3.438 0,4.086c0.037,0.648 -0.916,0.727 -0.916,0.727l0,0.332c0,0 13.769,7.264 15.498,8.106c1.73,0.843 1.11,4.384 1.11,4.384c0,0 -0.538,-1.258 -1.11,-1.518c-0.571,-0.261 -5.992,-2.026 -5.992,-2.026c0,0 -0.053,1.065 -0.466,1.03c-0.854,-0.071 0.082,-1.127 -0.511,-1.343c-0.942,-0.342 -4.923,-1.544 -4.923,-1.544c0,0 0.012,1.013 -0.392,1.017c-0.404,0.004 -0.59,-1.419 -0.59,-1.419l-2.148,-0.466l-6.833,0c0,0 0.016,9.824 0,13.042c-0.01,1.873 -0.416,3.975 -0.753,6.255c-0.16,1.086 7.849,5.626 7.586,5.773c-0.108,0.062 0,2.053 0,2.053l-8.238,-1.658c0,0 -0.444,2.463 -0.976,2.463c-0.533,0 -0.49,0 -0.49,0l-0.281,0c0,0 0.043,0 -0.49,0c-0.532,0 -0.976,-2.463 -0.976,-2.463l-8.238,1.658c0,0 0.108,-1.991 0,-2.053c-0.263,-0.147 7.746,-4.687 7.586,-5.773c-0.337,-2.28 -0.743,-4.382 -0.753,-6.255c-0.016,-3.218 0,-13.042 0,-13.042l-6.833,0l-2.148,0.466c0,0 -0.187,1.423 -0.59,1.419c-0.404,-0.004 -0.392,-1.017 -0.392,-1.017c0,0 -3.981,1.202 -4.924,1.544c-0.592,0.216 0.344,1.272 -0.511,1.343c-0.412,0.035 -0.465,-1.03 -0.465,-1.03c0,0 -5.421,1.765 -5.993,2.026c-0.571,0.26 -1.109,1.518 -1.109,1.518c0,0 -0.62,-3.541 1.109,-4.384c1.73,-0.842 15.499,-8.106 15.499,-8.106l0,-0.332c0,0 -0.953,-0.079 -0.917,-0.727c0.037,-0.648 -0.018,-4.086 0,-4.086c0.019,0 0.098,-0.738 0.441,-0.792c0.342,-0.053 2.43,0 2.43,0c0,0 0.35,-0.071 0.45,0.467c0.099,0.538 0,4.411 0,4.411l2.93,-1.706c0,0 1.033,-0.34 1.023,-1.847c-0.009,-1.508 0,-12.3 0,-12.3Z" style="fill:#884db3;stroke-width:0.48px;stroke:#000;"/></svg>