<?xml version="1.0" standalone="no"?><!DOCTYPE svg PUBLIC "-//W3C//DTD SVG 1.1//EN" "http://www.w3.org/Graphics/SVG/1.1/DTD/svg11.dtd"><svg width="100%" height="100%" viewBox="0 0 47 58" version="1.1" xmlns="http://www.w3.org/2000/svg" xmlns:xlink="http://www.w3.org/1999/xlink" xml:space="preserve" style="fill-rule:evenodd;clip-rule:evenodd;stroke-linecap:round;stroke-linejoin:round;stroke-miterlimit:1.41421;"><path d="M15.362,31.68l-2.129,0.179l-3.507,1.031c0,0 -0.176,1.344 -0.558,1.34c-0.381,-0.004 -0.369,-0.96 -0.369,-0.96c0,0 -1.685,0.246 -2.575,0.569c-0.559,0.203 -0.921,0.295 -0.921,0.295l-4.335,1.273c0,0 -0.585,-2.158 1.047,-2.954c1.632,-0.795 12.852,-7.059 12.852,-7.059l0,-0.313c0,0 -0.899,-0.074 -0.865,-0.686c0.034,-0.612 -0.018,-3.857 0,-3.857c0.018,0 0.092,-0.696 0.415,-0.747c0.323,-0.05 2.295,0 2.295,0c0,0 0.33,-0.067 0.424,0.441c0.093,0.508 0,4.163 0,4.163l2.173,-1.611c0,0 0.975,-0.32 0.966,-1.743c-0.009,-1.423 0,-12.2 0,-12.2c0,0 1.18,-7.991 2.757,-7.975c1.575,0.016 2.927,7.975 2.927,7.975c0,0 0.009,10.777 0,12.2c-0.009,1.423 0.966,1.743 0.966,1.743l2.174,1.611c0,0 -0.094,-3.655 0,-4.163c0.093,-0.508 0.424,-0.441 0.424,-0.441c0,0 1.971,-0.05 2.294,0c0.323,0.051 0.398,0.747 0.415,0.747c0.018,0 -0.034,3.245 0,3.857c0.035,0.612 -0.864,0.686 -0.864,0.686l0,0.313c0,0 11.219,6.264 12.851,7.059c1.632,0.796 1.047,2.954 1.047,2.954l-4.334,-1.273c0,0 -0.363,-0.092 -0.922,-0.295c-0.889,-0.323 -2.574,-0.865 -2.574,-0.865c0,0 0.011,0.956 -0.37,0.96c-0.381,0.003 -0.557,-1.34 -0.557,-1.34l-3.508,-1.031l-1.88,-0.079l0,1.219l-0.66,0l0,-1.247l-4.502,-0.189c0,0 0.015,8.679 0,11.717c-0.009,1.768 -0.392,4.64 -0.71,6.791c-0.152,1.026 7.704,5.015 7.456,5.154c-0.102,0.057 0,1.937 0,1.937l-8.071,-2.157l-1.009,0.186l-0.155,1.143l-0.438,0l-0.019,-1.181l-1.412,-0.148l-8.072,2.157c0,0 0.103,-1.88 0,-1.937c-0.248,-0.139 7.608,-4.128 7.456,-5.154c-0.318,-2.151 -0.701,-5.023 -0.71,-6.791c-0.015,-3.038 0,-11.717 0,-11.717l-4.254,0.357l0,1.079l-0.659,0l0,-1.023Z" style="fill:#00ff82;fill-opacity:0.25;stroke-width:1px;stroke:#000;stroke-opacity:0.163725;"/></svg>