<?xml version="1.0" standalone="no"?><!DOCTYPE svg PUBLIC "-//W3C//DTD SVG 1.1//EN" "http://www.w3.org/Graphics/SVG/1.1/DTD/svg11.dtd"><svg width="100%" height="100%" viewBox="0 0 250 250" version="1.1" xmlns="http://www.w3.org/2000/svg" xmlns:xlink="http://www.w3.org/1999/xlink" xml:space="preserve" style="fill-rule:evenodd;clip-rule:evenodd;stroke-miterlimit:1.41421;"><g id="Dos SVG"><path d="M104.978,249.716l-0.021,0.284c-0.06,-0.799 -0.117,-1.581 -0.172,-2.348c-0.555,-0.018 -1.001,-0.474 -1.001,-1.034l0,-5.697l0,0l0,0.004c-0.539,0 -0.523,-1.668 0,-1.668l0,0.004l0,0l0,-1.345c0,-0.319 0.144,-0.604 0.371,-0.794c-0.093,-1.991 -0.162,-3.819 -0.208,-5.494l0,0c0,-0.072 -0.342,-6.171 -0.77,-14.271l-1.033,0c-3.71,0.112 -8.428,0.653 -10.346,0l-0.693,0l-0.433,-1.161l-0.401,0.729c-1.007,-4.722 -1.766,-9.711 -2.344,-14.843c-0.3,0.904 -0.161,1.614 -0.065,2.36l1.91,14.63l-16.597,5.519l0.001,0.048l-0.019,-0.042l-20.174,6.708c-0.368,-5.065 -0.508,-9.828 -0.26,-14.489l9.695,-16.096l23.527,-32.683c0,0 0.048,-2.866 0.002,-5.619l-0.008,0l0.007,-0.064c-0.072,-4.227 -0.134,-8.336 -0.226,-12.254l-0.337,-0.166l-85.383,22.157c2.175,-17.699 5.35,-22.979 6.813,-23.622l63.748,-29.482l0.725,-0.961l0.318,0.704c-0.068,-0.257 -0.163,-0.497 -0.318,-0.704l10.007,-16.407c0,0 -0.099,-0.967 -0.121,-4.319l-0.031,-4.744c-0.822,-0.327 -0.955,-5.375 -0.037,-5.595l-0.05,-7.716l0.777,-4.337l10.005,-0.066l0.146,22.367l0.829,0l0,-24.862c0,-0.964 0.001,-1.818 0.01,-2.769l-0.01,27.631l0.033,0l0,-27.677c-0.276,-0.759 -0.087,-0.604 -0.075,-4.956c0.003,-0.95 0.029,-2.077 0.075,-3.338l0,-0.386l0.015,0c0.237,-6.088 0.905,-15.071 1.574,-22.312l0.104,-0.503c0.022,-0.277 0.128,-0.479 0.147,-0.707c0.086,-1.027 0.14,-1.498 0.262,-2.363l0.063,-0.456l0,0.01c0.019,-0.133 0.039,-0.275 0.061,-0.429c0.03,-0.178 0.09,-0.316 0.168,-0.419l0.02,-0.163l0.014,-0.121l-0.081,0.286c0.096,-0.815 0.194,-1.618 0.293,-2.412l-0.034,0c0,0 0.011,-0.001 0.034,-0.003c0.287,-2.299 0.585,-4.514 0.886,-6.679c0.889,-6.397 5.886,-17.424 8.107,-23.534l-0.145,0.51c0.064,-0.173 0.127,-0.344 0.187,-0.51l-0.027,0.224c0.112,-0.256 0.209,-0.457 0.288,-0.59l0.121,-0.376l0.056,-0.305l0.021,0.066l0.021,-0.066l0.056,0.305l0.12,0.376c0.08,0.133 0.177,0.334 0.288,0.59l-0.027,-0.224c0.061,0.166 0.123,0.337 0.188,0.51l-0.145,-0.51c2.22,6.11 7.218,17.137 8.107,23.534c0.301,2.165 0.598,4.38 0.885,6.679c0.023,0.002 0.035,0.003 0.035,0.003l-0.034,0c0.099,0.794 0.197,1.597 0.293,2.412l-0.082,-0.286l0.015,0.121l0.019,0.163c0.079,0.103 0.138,0.241 0.168,0.419c0.023,0.154 0.043,0.296 0.062,0.429l0,-0.01l0.063,0.456c0.121,0.865 0.175,1.336 0.261,2.363c0.019,0.228 0.126,0.43 0.147,0.707l0.105,0.503c0.669,7.241 1.337,16.224 1.574,22.312l0.014,0l0,0.386c0.046,1.261 0.073,2.388 0.075,3.338c0.013,4.352 0.201,4.197 -0.075,4.956l0,27.677l0.034,0l-0.011,-27.631c0.009,0.951 0.011,1.805 0.011,2.769l0,24.862l0.829,0l0.146,-22.367l10.005,0.066l0.777,4.337l-0.051,7.716c0.918,0.22 0.785,5.268 -0.036,5.595l-0.031,4.744c-0.022,3.352 -0.121,4.319 -0.121,4.319l10.006,16.407c-0.154,0.207 -0.249,0.447 -0.317,0.704l0.317,-0.704l0.725,0.961l63.749,29.482c1.462,0.643 4.637,5.923 6.813,23.622l-85.384,-22.157l-0.336,0.166c-0.092,3.918 -0.155,8.027 -0.226,12.254l0.007,0.064l-0.008,0c-0.047,2.753 0.002,5.619 0.002,5.619l23.527,32.683l9.695,16.096c0.248,4.661 0.108,9.424 -0.261,14.489l-20.173,-6.708l-0.019,0.042l0,-0.048l-16.597,-5.519l1.91,-14.63c0.097,-0.746 0.235,-1.456 -0.064,-2.36c-0.578,5.132 -1.337,10.121 -2.344,14.843l-0.401,-0.729l-0.433,1.161l-0.693,0c-1.919,0.653 -6.636,0.112 -10.347,0l-1.032,0c-0.428,8.1 -0.77,14.199 -0.77,14.271l0,0c-0.047,1.675 -0.115,3.503 -0.209,5.494c0.227,0.19 0.372,0.475 0.372,0.794l0,1.345l0,0l0,-0.004c0.523,0 0.539,1.668 0,1.668l0,-0.004l0,0l0,5.697c0,0.56 -0.446,1.016 -1.002,1.034c-0.054,0.767 -0.111,1.549 -0.171,2.348l-0.021,-0.284Z" style="fill:#884db3;stroke-width:0.14px;stroke:#000;"/></g></svg>