<svg viewBox="0 0 53 58" xmlns="http://www.w3.org/2000/svg" fill-rule="evenodd" clip-rule="evenodd" stroke-miterlimit="1.41"><path d="M23.5 6.35S24.73.4 26.4.4c1.68.03 3.1 5.95 3.1 5.95s.02 10.8 0 12.3c0 1.5 1.03 1.85 1.03 1.85l2.93 1.7s-.1-3.87 0-4.4c.1-.54.45-.47.45-.47s2.1-.06 2.44 0c.34.05.42.8.44.8.02 0-.03 3.43 0 4.08.04.65-.9.73-.9.73v.33s13.75 7.27 15.48 8.1c1.73.85 1.1 4.4 1.1 4.4s-.52-1.26-1.1-1.52c-.57-.26-6-2.03-6-2.03s-.04 1.08-.45 1.04c-.85-.07.1-1.13-.5-1.34-.95-.34-4.93-1.55-4.93-1.55s0 1.02-.4 1.02-.58-1.42-.58-1.42l-2.16-.46H29.5s.02 9.8 0 13.03c0 1.87-.4 3.97-.74 6.25-.16 1.1 7.84 5.63 7.58 5.78-.1.06 0 2.05 0 2.05l-8.24-1.65s-.44 2.46-.97 2.46h-.77-.5c-.53 0-.97-2.45-.97-2.45l-8.25 1.66s.1-1.98 0-2.04c-.26-.15 7.75-4.7 7.6-5.78-.35-2.28-.75-4.38-.76-6.25-.03-3.22 0-13.04 0-13.04h-6.85l-2.15.45s-.18 1.42-.6 1.42c-.4 0-.38-1.02-.38-1.02s-3.98 1.2-4.92 1.55c-.6.2.34 1.27-.5 1.34-.42.04-.48-1.03-.48-1.03s-5.42 1.78-6 2.04c-.56.26-1.1 1.5-1.1 1.5s-.62-3.53 1.1-4.37c1.74-.84 15.5-8.1 15.5-8.1v-.34s-.94-.08-.9-.72c.03-.64-.03-4.08 0-4.08 0 0 .1-.74.43-.8.34-.05 2.43 0 2.43 0s.35-.06.45.47c.1.53 0 4.4 0 4.4l2.93-1.7s1.04-.34 1.03-1.85c-.02-1.5 0-12.3 0-12.3z" fill="#d0d0d0" stroke-width=".1" stroke="#000"/></svg>
