<svg viewBox="0 0 47 58" xmlns="http://www.w3.org/2000/svg" fill-rule="evenodd" clip-rule="evenodd" stroke-linecap="round" stroke-linejoin="round" stroke-miterlimit="1.41"><path d="M15.36 31.68l-2.13.18-3.5 1.03s-.18 1.33-.56 1.33c-.38 0-.37-.96-.37-.96s-1.7.25-2.58.57c-.55.2-.92.3-.92.3L.97 35.4s-.6-2.15 1.05-2.95c1.63-.8 12.85-7.06 12.85-7.06v-.32s-.9-.07-.87-.68c.04-.62-.02-3.86 0-3.86s.1-.7.42-.75c.32-.06 2.3 0 2.3 0s.32-.08.42.43c.1.5 0 4.17 0 4.17l2.17-1.62s.98-.32.97-1.74V8.84s1.18-8 2.76-7.97c1.58 0 2.93 7.97 2.93 7.97v12.2c0 1.42.96 1.74.96 1.74l2.18 1.62s-.1-3.66 0-4.17c.1-.5.42-.44.42-.44s1.97-.06 2.3 0c.32.04.4.74.4.74.03 0-.02 3.24 0 3.86.05.6-.85.68-.85.68v.3s11.22 6.28 12.85 7.07c1.63.8 1.05 2.96 1.05 2.96l-4.34-1.27s-.36-.1-.92-.3l-2.56-.86s0 .96-.37.96c-.38 0-.56-1.34-.56-1.34L33 31.55l-1.88-.08v1.22h-.66v-1.24l-4.5-.2V43c0 1.77-.4 4.64-.7 6.8-.16 1.02 7.7 5 7.45 5.15-.1.06 0 1.94 0 1.94l-8.07-2.16-1 .2-.16 1.14h-.44L23 54.86l-1.4-.15-8.07 2.17s.1-1.88 0-1.94c-.25-.14 7.6-4.13 7.46-5.15-.33-2.16-.72-5.03-.72-6.8-.02-3.03 0-11.7 0-11.7l-4.26.34v1.08h-.66v-1.02z" fill="#00ff82" fill-opacity=".25" stroke="#000" stroke-opacity=".16"/></svg>