<svg viewBox="0 0 60 60" xmlns="http://www.w3.org/2000/svg" fill-rule="evenodd" clip-rule="evenodd" stroke-linecap="round" stroke-linejoin="round" stroke-miterlimit="1.41"><path d="M21.46 51.96h-2.53l-1.13-2.2c-.65 2.5-.97 4.88-1.27 7.97h-.17L6.9 55.37v-3.1l5.5-3.76 1.04-2.4L.6 42.84v-5.6c3.9-2.65 7.8-5.3 11.72-8l1.38-2.7.37-8.8.73-1.55 1.56 1.54.67-1.55 1.5-11.8c.45-1.36 1.02-2.54 1.64-3.67 0 0 1.23 2.32 1.7 3.67l1.5 11.8.65 1.54 1.56-1.55.73 1.54.4 8.8 1.37 2.7c3.9 2.7 7.8 5.35 11.7 8v5.6L26.94 46.1 28 48.5l5.5 3.77v3.1L24 57.73h-.17c-.3-3.1-.62-5.48-1.27-7.95l-1.12 2.18z" fill="#d0d0d0" stroke-width=".1" stroke="#000"/></svg>