<svg width="57" height="57" viewBox="0 0 57 57" xmlns="http://www.w3.org/2000/svg" fill-rule="evenodd" clip-rule="evenodd" stroke-miterlimit="1.41"><path d="M23.93 56.94V57c0-.18-.03-.36-.04-.54-.14 0-.24-.1-.24-.23v-1.3c-.12 0-.12-.38 0-.38v-.3c0-.08.04-.14.1-.2l-.06-1.24-.18-3.24h-.23c-.86.02-1.93.15-2.37 0h-.16l-.1-.27-.1.16c-.22-1.08-.4-2.22-.52-3.4-.07.22-.04.38-.02.55l.44 3.35-3.8 1.26v.02l-4.6 1.52c-.07-1.16-.1-2.24-.05-3.3l2.2-3.68 5.37-7.45v-1.27l-.06-2.8-.07-.04L0 39.23c.5-4.04 1.22-5.24 1.55-5.4l14.54-6.7.15-.23.08.17-.08-.16 2.3-3.73c-.02 0-.04-.22-.04-1V21.1c-.2-.07-.22-1.22 0-1.27l-.02-1.76.18-1h2.28l.03 5.1h.2v-5.68-.64 6.3-6.3c-.06-.18-.02-.14-.02-1.14 0-.2 0-.47.02-.76v-.1c.06-1.37.2-3.42.36-5.07l.02-.13c0-.06.03-.1.04-.16 0-.22.02-.33.05-.53v-.1c.02-.03.02-.06.03-.1 0-.04.02-.07.03-.1l.02-.03V7.6l-.02.08.07-.55.2-1.53c.2-1.45 1.34-3.97 1.85-5.36l-.03.1.03-.1V.3l.06-.15.02-.08V0h.02v.07l.04.08.07.14V.23c0 .04.02.07.03.1l-.03-.1c.5 1.4 1.64 3.9 1.85 5.36l.2 1.53.07.55-.02-.07v.08c.02.02.04.05.04.1v.1l.02.1.06.53c0 .06.03.1.03.17l.04.12c.15 1.64.3 3.7.36 5.07v.1l.02.75c0 1 .04.96-.02 1.13v6.3-6.3 6.3h.2l.03-5.1 2.28.02.2 1-.02 1.75c.2.05.18 1.2 0 1.27l-.02 1.08c0 .77-.03 1-.03 1l2.3 3.73c-.05.06-.07.1-.1.17l.1-.16.15.23 14.54 6.72c.33.15 1.05 1.35 1.55 5.4L28.4 34.17l-.07.04c-.03.9-.04 1.83-.06 2.8v1.3l5.37 7.44 2.2 3.67c.07 1.07.03 2.15-.05 3.3l-4.6-1.52v.02l-3.8-1.27.44-3.34c.02-.16.05-.32-.02-.53-.13 1.17-.3 2.3-.53 3.4l-.1-.18-.1.26h-.16c-.44.15-1.5.02-2.36 0h-.23l-.18 3.25c0 .4-.03.8-.05 1.26.05.05.1.1.1.18v.3c.1 0 .1.4 0 .4v1.3c0 .12-.1.22-.24.22 0 .18-.03.36-.04.54v-.07z" fill="#884db3" stroke-width=".03" stroke="#000"/></svg>
